<svg width="36" height="35" viewBox="0 0 36 35" fill="none" xmlns="http://www.w3.org/2000/svg">
<rect y="0.0703125" width="35.0324" height="34.0717" rx="17.0359" fill="#F8F8F8"/>
<path d="M15.25 9.80469H11.5C10.675 9.80469 10 10.4618 10 11.2649V14.9154C10 15.7186 10.675 16.3757 11.5 16.3757H15.25C16.075 16.3757 16.75 15.7186 16.75 14.9154V11.2649C16.75 10.4618 16.075 9.80469 15.25 9.80469ZM15.25 13.4552H11.5V12.7251H15.25V13.4552ZM23.5 17.8359H19.75C18.925 17.8359 18.25 18.493 18.25 19.2961V22.9466C18.25 23.7498 18.925 24.4069 19.75 24.4069H23.5C24.325 24.4069 25 23.7498 25 22.9466V19.2961C25 18.493 24.325 17.8359 23.5 17.8359ZM23.5 22.2165H19.75V21.4864H23.5V22.2165ZM23.5 20.7563H19.75V20.0262H23.5V20.7563ZM23.5 9.80469H19.75C18.925 9.80469 18.25 10.4618 18.25 11.2649V14.9154C18.25 15.7186 18.925 16.3757 19.75 16.3757H23.5C24.325 16.3757 25 15.7186 25 14.9154V11.2649C25 10.4618 24.325 9.80469 23.5 9.80469ZM23.5 13.4552H22V14.9154H21.25V13.4552H19.75V12.7251H21.25V11.2649H22V12.7251H23.5V13.4552ZM15.25 17.8359H11.5C10.675 17.8359 10 18.493 10 19.2961V22.9466C10 23.7498 10.675 24.4069 11.5 24.4069H15.25C16.075 24.4069 16.75 23.7498 16.75 22.9466V19.2961C16.75 18.493 16.075 17.8359 15.25 17.8359ZM14.95 22.1435L14.425 22.6546L13.375 21.6324L12.325 22.6546L11.8 22.1435L12.85 21.1214L11.8 20.0992L12.325 19.5881L13.375 20.6103L14.425 19.5881L14.95 20.0992L13.9 21.1214L14.95 22.1435Z" fill="#FD2016"/>
</svg>
