<svg width="30" height="30" viewBox="0 0 30 30" fill="none" xmlns="http://www.w3.org/2000/svg">
<path d="M15 0.426758C6.71902 0.426758 0 6.96758 0 15.0289C0 18.2569 1.0733 21.23 2.88831 23.6509L0.977312 29.1554L6.93717 27.346C9.26702 28.7901 12.0332 29.6311 15 29.6311C23.281 29.6311 30 23.0903 30 15.0289C30 6.96758 23.281 0.426758 15 0.426758ZM21.8674 22.8609C19.1449 23.9227 15.8988 22.8949 12.3473 20.2701C8.79581 17.6453 6.45724 13.9501 6.30017 11.2064C6.14311 8.46262 8.43805 7.07801 9.68586 7.0865C10.9337 7.095 12.3037 10.977 12.3211 11.5716C12.3386 12.1747 10.7941 13.2451 10.733 13.7547C10.6719 14.2644 12.836 16.7788 13.7522 17.4584C14.6597 18.1294 16.5358 19.4206 17.5044 19.3017C18.4642 19.1743 19.1012 17.297 19.712 17.178C20.3229 17.0591 23.6562 18.6731 23.9878 19.0893C24.3194 19.5141 24.2845 21.9265 21.8674 22.8609Z" fill="#20C863"/>
</svg>
